<svg xmlns="http://www.w3.org/2000/svg" width="428.897" height="428.896"><path d="M379.936 163.513c-.034-.521-.131-1.024-.303-1.516-.068-.188-.114-.363-.194-.543-.286-.624-.646-1.212-1.149-1.716L220.261 1.71c-.504-.503-1.087-.86-1.707-1.141-.184-.089-.369-.135-.563-.2-.486-.163-.972-.263-1.48-.292-.136-.011-.253-.077-.382-.077H54.747c-3.23 0-5.855 2.625-5.855 5.855v417.186c0 3.236 2.625 5.855 5.855 5.855H374.15c3.242 0 5.854-2.619 5.854-5.855V163.878c0-.131-.062-.24-.068-.365zM221.976 19.984l69.028 69.017 69.016 69.014H221.976V19.984zM60.603 417.181V11.705h149.666v152.173c0 3.231 2.622 5.855 5.855 5.855h152.171V417.18H60.603z" fill="#173e43"/><g fill="#173e43"><path d="M89.141 294.941l92.572-47.684v13.77l-78.005 39.1v.4l78.005 39.105v13.764l-92.572-47.683v-10.772zM342.947 305.914l-92.575 47.482v-13.77l78.605-39.105v-.4l-78.605-39.1v-13.774l92.575 47.482v11.185z"/></g></svg>